<svg width="30" height="15" viewBox="0 0 30 15" fill="none" xmlns="http://www.w3.org/2000/svg">
<path d="M27.4948 11.8743L25.1892 11.8743L26.3511 9.65929L27.4948 7.46092L28.6596 5.22584L28.6205 5.15245H28.6988L29.8154 3.01079L28.6596 0.789063L27.4948 3.00745L26.3782 5.14912L26.342 5.22251L25.1892 7.43756L24.0365 9.64928L22.8837 11.8643H20.5721L18.2665 11.8643L17.1469 9.72935L17.1107 9.65596L15.958 7.46092L17.1107 5.22584L17.0746 5.15245H17.1499L18.2665 3.01079L25.1892 3.01079L26.3511 0.789063L24.0455 0.789063L21.8061 0.789063L21.776 0.862453L21.7279 0.789063L19.4223 0.789063L17.1168 0.789063L15.964 3.00412L14.8533 5.15245L14.8142 5.22584L14.7751 5.15245L13.6494 3.01079L12.4936 0.789063L10.188 0.789063L7.88246 0.789063L7.84333 0.862453L7.79818 0.789063L5.56485 0.789063L3.25929 0.789063L0.95372 0.789063L2.1065 3.00412L6.72666 3.00412L5.61 5.14578L5.57388 5.21917L4.4211 7.43423L3.26832 9.64595L2.11553 11.861L0.962749 14.0727L12.4936 14.0727L13.6103 11.9311L13.5741 11.8577H13.6494L14.8022 9.64261L15.9549 11.8577H16.0302L15.9941 11.9311L17.1107 14.0727L28.6626 14.0727L29.8154 11.861L27.4948 11.8743ZM11.3258 11.8743H9.02019H6.72666L4.4211 11.8743L5.57388 9.65929L6.72666 7.46092L7.87343 5.22584L7.8343 5.15245H7.90955L7.87343 5.22584L9.02621 7.4409L10.179 9.65262L11.3318 11.8677L11.3258 11.8743ZM12.4816 9.65262L12.4454 9.72601L12.4063 9.65262L11.3017 7.51429L11.2625 7.4409L10.1459 5.2959L10.0736 5.15245L8.9931 3.07751L8.95397 3.00745L11.3408 3.00745L12.4454 5.15245H12.5207L12.4846 5.22584L13.6494 7.4409L12.4816 9.65262Z" fill="#703EFF"/>
</svg>
