<svg width="180" height="83" viewBox="0 0 180 83" fill="none" xmlns="http://www.w3.org/2000/svg">
<path d="M165.5 69.2592H151.176L158.394 55.4979L165.5 41.8402L172.736 27.9545L172.493 27.4985H172.979L179.917 14.1932L172.736 0.390381L165.5 14.1724L158.562 27.4778L158.338 27.9338L151.176 41.6951L144.014 55.4357L136.852 69.197H122.491H108.168L101.212 55.9331L100.987 55.4771L93.8254 41.8402L100.987 27.9545L100.763 27.4985H101.23L108.168 14.1932L151.176 14.1932L158.394 0.390381L144.07 0.390381L130.158 0.390381L129.971 0.846328L129.672 0.390381L115.348 0.390381L101.025 0.390381L93.8628 14.1517L86.9627 27.4985L86.7196 27.9545L86.4766 27.4985L79.483 14.1932L72.3025 0.390381L57.9789 0.390381L43.6552 0.390381L43.4122 0.846328L43.1317 0.390381L29.2568 0.390381L14.9332 0.390381L0.609559 0.390381L7.77138 14.1517L36.4747 14.1517L29.5373 27.4571L29.3129 27.913L22.1511 41.6744L14.9893 55.415L7.82747 69.1763L0.665654 82.9169H72.3025L79.2399 69.6115L79.0156 69.1556H79.483L86.6449 55.3942L93.8067 69.1556H94.2741L94.0498 69.6115L100.987 82.9169H172.755L179.917 69.1763L165.5 69.2592ZM65.0472 69.2592H50.7236H36.4747H22.1511L29.3129 55.4979L36.4747 41.8402L43.5992 27.9545L43.3561 27.4985H43.8235L43.5992 27.9545L50.761 41.7158L57.9228 55.4564L65.0846 69.2177L65.0472 69.2592ZM72.2277 55.4564L72.0033 55.9124L71.7602 55.4564L64.8976 42.1717L64.6545 41.7158L57.7171 28.3897L57.2683 27.4985L50.5553 14.6077L50.3122 14.1724L65.1407 14.1724L72.0033 27.4985H72.4708L72.2464 27.9545L79.483 41.7158L72.2277 55.4564Z" fill="white"/>
</svg>
